<svg width="20" height="20" viewBox="0 0 20 20" fill="none" xmlns="http://www.w3.org/2000/svg">
<path d="M7.49996 16.6667C7.72097 16.6667 7.93293 16.7545 8.08921 16.9108C8.24549 17.067 8.33329 17.279 8.33329 17.5C8.33329 17.721 8.24549 17.933 8.08921 18.0893C7.93293 18.2455 7.72097 18.3333 7.49996 18.3333C7.27894 18.3333 7.06698 18.2455 6.9107 18.0893C6.75442 17.933 6.66662 17.721 6.66662 17.5C6.66662 17.279 6.75442 17.067 6.9107 16.9108C7.06698 16.7545 7.27894 16.6667 7.49996 16.6667ZM13.3333 16.6667C13.5543 16.6667 13.7663 16.7545 13.9225 16.9108C14.0788 17.067 14.1666 17.279 14.1666 17.5C14.1666 17.721 14.0788 17.933 13.9225 18.0893C13.7663 18.2455 13.5543 18.3333 13.3333 18.3333C13.1123 18.3333 12.9003 18.2455 12.744 18.0893C12.5878 17.933 12.5 17.721 12.5 17.5C12.5 17.279 12.5878 17.067 12.744 16.9108C12.9003 16.7545 13.1123 16.6667 13.3333 16.6667ZM2.91246 2.19251L2.99996 2.25084L4.42329 3.31751C4.66551 3.49925 4.85363 3.74356 4.96746 4.02417L5.01746 4.16667H15.7225C15.9484 4.16662 16.172 4.21249 16.3796 4.30151C16.5872 4.39053 16.7746 4.52084 16.9303 4.68452C17.0861 4.84819 17.2069 5.04182 17.2855 5.25364C17.3641 5.46545 17.3988 5.69103 17.3875 5.91667L17.3766 6.04001L16.9958 9.08584C16.8815 10.0024 16.4659 10.8551 15.8142 11.5098C15.1626 12.1644 14.3119 12.584 13.3958 12.7025L13.2075 12.7217L7.11329 13.23L7.32996 14.1667H14.5833C14.7957 14.1669 15 14.2482 15.1544 14.394C15.3089 14.5399 15.4018 14.7391 15.4143 14.9512C15.4267 15.1632 15.3577 15.372 15.2214 15.5349C15.0851 15.6977 14.8917 15.8024 14.6808 15.8275L14.5833 15.8333H7.32996C6.97629 15.8334 6.63178 15.721 6.34624 15.5123C6.06071 15.3036 5.84896 15.0095 5.74162 14.6725L5.70579 14.5417L3.42246 4.65001L1.99996 3.58334C1.83737 3.46148 1.72491 3.28442 1.68372 3.08545C1.64253 2.88649 1.67545 2.67933 1.77629 2.50293C1.87713 2.32654 2.03894 2.19306 2.2313 2.12761C2.42365 2.06215 2.63329 2.06923 2.82079 2.14751L2.91246 2.19251ZM15.7225 5.83334H5.40579L6.73496 11.5883L13.0683 11.0608C13.6399 11.0133 14.1778 10.7706 14.5917 10.3735C15.0056 9.97647 15.2704 9.44914 15.3416 8.88001L15.7225 5.83334Z" fill="black"/>
</svg>
