<svg width="19" height="14" viewBox="0 0 19 14" fill="none" xmlns="http://www.w3.org/2000/svg">
<path d="M10.5556 12C11.1385 12 11.6111 12.4477 11.6111 13C11.6111 13.5523 11.1385 14 10.5556 14H1.05556C0.472588 14 0 13.5523 0 13C0 12.4477 0.472588 12 1.05556 12H10.5556ZM17.9444 6C18.5274 6 19 6.44772 19 7C19 7.55228 18.5274 8 17.9444 8H1.05556C0.472588 8 0 7.55228 0 7C0 6.44772 0.472588 6 1.05556 6H17.9444ZM17.9444 0C18.5274 0 19 0.447715 19 1C19 1.55228 18.5274 2 17.9444 2H1.05556C0.472588 2 0 1.55228 0 1C0 0.447715 0.472588 0 1.05556 0H17.9444Z" fill="#99A2AD"/>
</svg>
